<?xml version="1.0" encoding="UTF-8"?>
<!DOCTYPE svg PUBLIC "-//W3C//DTD SVG 1.1//EN" "http://www.w3.org/Graphics/SVG/1.1/DTD/svg11.dtd">
<!-- Creator: CorelDRAW 2019 (64-Bit) -->
<svg xmlns="http://www.w3.org/2000/svg" xml:space="preserve" width="1081px" height="259px" version="1.1" style="shape-rendering:geometricPrecision; text-rendering:geometricPrecision; image-rendering:optimizeQuality; fill-rule:evenodd; clip-rule:evenodd"
viewBox="0 0 50.26 12.02"
 xmlns:xlink="http://www.w3.org/1999/xlink">
 <defs>
  <style type="text/css">
   <![CDATA[
    .fil1 {fill:white}
    .fil0 {fill:white;fill-rule:nonzero}
   ]]>
  </style>
 </defs>
 <g id="Capa_x0020_1">
  <metadata id="CorelCorpID_0Corel-Layer"/>
  <polygon class="fil0" points="12.13,8.89 13.03,8.89 13.03,3.17 12.13,3.17 "/>
  <path id="1" class="fil0" d="M13.47 8.89l0.83 0 0.16 -1.12 1.03 0 0 -0.01 0.16 1.13 0.9 0 -0.93 -5.72 -1.22 0 -0.93 5.72zm1.1 -1.89l0.39 -2.84 0.02 0 0.4 2.84 -0.81 0z"/>
  <polygon id="2" class="fil0" points="16.99,8.89 17.89,8.89 17.89,6.4 19.05,6.4 19.05,5.58 17.89,5.58 17.89,3.98 19.37,3.98 19.37,3.17 16.99,3.17 "/>
  <path id="3" class="fil0" d="M19.3 8.89l0.84 0 0.16 -1.12 1.02 0 0 -0.01 0.17 1.13 0.9 0 -0.94 -5.72 -1.22 0 -0.93 5.72zm1.11 -1.89l0.39 -2.84 0.02 0 0.4 2.84 -0.81 0z"/>
  <path id="4" class="fil0" d="M23.97 8.98c0.88,0 1.35,-0.53 1.35,-1.46 0,-0.71 -0.23,-1.17 -0.99,-1.83 -0.59,-0.52 -0.77,-0.82 -0.77,-1.24 0,-0.39 0.16,-0.55 0.45,-0.55 0.28,0 0.45,0.16 0.45,0.57l0 0.29 0.85 0 0 -0.24c0,-0.91 -0.44,-1.44 -1.31,-1.44 -0.88,0 -1.34,0.53 -1.34,1.43 0,0.65 0.24,1.12 0.99,1.78 0.59,0.52 0.77,0.82 0.77,1.29 0,0.43 -0.18,0.58 -0.46,0.58 -0.29,0 -0.47,-0.15 -0.47,-0.56l0 -0.39 -0.85 0 0 0.33c0,0.91 0.44,1.44 1.33,1.44z"/>
  <polygon id="5" class="fil0" points="27.02,6.44 28.82,6.44 28.82,5.62 27.02,5.62 "/>
  <polygon id="6" class="fil0" points="30.67,8.89 31.57,8.89 31.57,6.4 32.73,6.4 32.73,5.58 31.57,5.58 31.57,3.98 33.05,3.98 33.05,3.17 30.67,3.17 "/>
  <path id="7" class="fil0" d="M34.78 8.98c0.89,0 1.37,-0.53 1.37,-1.44l0 -3.02c0,-0.91 -0.48,-1.44 -1.37,-1.44 -0.88,0 -1.36,0.53 -1.36,1.44l0 3.02c0,0.91 0.48,1.44 1.36,1.44zm0 -0.82c-0.28,0 -0.46,-0.16 -0.46,-0.57l0 -3.12c0,-0.41 0.18,-0.57 0.46,-0.57 0.29,0 0.47,0.16 0.47,0.57l0 3.12c0,0.41 -0.18,0.57 -0.47,0.57z"/>
  <path id="8" class="fil0" d="M37.93 8.98c0.88,0 1.36,-0.53 1.36,-1.46 0,-0.71 -0.24,-1.17 -0.99,-1.83 -0.59,-0.52 -0.78,-0.82 -0.78,-1.24 0,-0.39 0.16,-0.55 0.45,-0.55 0.28,0 0.45,0.16 0.45,0.57l0 0.29 0.85 0 0 -0.24c0,-0.91 -0.43,-1.44 -1.31,-1.44 -0.88,0 -1.34,0.53 -1.34,1.43 0,0.65 0.24,1.12 1,1.78 0.59,0.52 0.77,0.82 0.77,1.29 0,0.43 -0.18,0.58 -0.47,0.58 -0.29,0 -0.47,-0.15 -0.47,-0.56l0 -0.39 -0.85 0 0 0.33c0,0.91 0.44,1.44 1.33,1.44z"/>
  <polygon id="9" class="fil0" points="39.8,8.89 40.59,8.89 40.59,4.56 40.6,4.56 41.26,8.89 42.01,8.89 42.67,4.56 42.68,4.56 42.68,8.89 43.53,8.89 43.53,3.17 42.25,3.17 41.67,7.27 41.66,7.27 41.09,3.17 39.8,3.17 "/>
  <path id="10" class="fil0" d="M43.97 8.89l0.83 0 0.16 -1.12 1.03 0 0 -0.01 0.16 1.13 0.9 0 -0.93 -5.72 -1.22 0 -0.93 5.72zm1.1 -1.89l0.39 -2.84 0.02 0 0.4 2.84 -0.81 0z"/>
  <path id="11" class="fil0" d="M47.49 8.89l0.9 0 0 -2.45 0.31 0c0.41,0 0.56,0.17 0.56,0.7l0 1.05c0,0.47 0.03,0.56 0.08,0.7l0.92 0c-0.09,-0.21 -0.1,-0.41 -0.1,-0.69l0 -1.01c0,-0.64 -0.15,-1.07 -0.6,-1.21l0 -0.02c0.4,-0.16 0.59,-0.54 0.59,-1.12l0 -0.36c0,-0.88 -0.4,-1.31 -1.33,-1.31l-1.33 0 0 5.72zm0.9 -3.27l0 -1.64 0.4 0c0.32,0 0.46,0.18 0.46,0.59l0 0.45c0,0.45 -0.2,0.6 -0.54,0.6l-0.32 0z"/>
  <path class="fil1" d="M4.82 8.78l0 2.02c1.64,-0.27 2.81,-0.88 3.47,-1.9 0.43,-0.65 0.75,-1.48 0.65,-2.48 -0.25,0.94 -0.87,1.58 -1.75,2.16l0.76 0c-0.74,1.2 -1.6,1.41 -2.52,1.13l0 -0.52 -0.61 -0.41z"/>
  <path class="fil1" d="M4.82 10.8c1.64,-0.27 2.81,-0.88 3.47,-1.9 0.43,-0.65 0.75,-1.48 0.65,-2.48 0.82,1.18 0.84,2.33 0.02,3.46l-0.2 -0.68c-1.04,1.85 -3.24,1.6 -3.96,2.82l0.02 -1.22z"/>
  <path class="fil1" d="M4.8 10.8c-1.64,-0.27 -2.8,-0.88 -3.47,-1.9 -0.42,-0.65 -0.86,-1.37 -0.76,-2.36 -0.82,1.17 -0.72,2.21 0.1,3.34l0.19 -0.68c1.05,1.85 3.24,1.6 3.96,2.82l-0.02 -1.22z"/>
  <path class="fil1" d="M4.8 10.8c-1.64,-0.27 -2.8,-0.88 -3.47,-1.9 -0.42,-0.65 -0.86,-1.37 -0.76,-2.36 0.52,0.91 1.13,1.6 1.84,2.07l-0.74 0c0.59,0.98 1.39,1.37 2.42,1.16l-0.02 -0.28c0.37,-0.13 0.53,-0.34 0.43,-0.67l-0.41 -0.42 0 -1.4 -0.51 -0.51c-0.12,-0.14 0.09,-0.46 0.32,-0.33l0.4 0.34 0.57 -0.57 0 2.01c-0.28,0.32 -0.26,0.59 -0.05,0.84l-0.02 2.02z"/>
  <path class="fil1" d="M4.87 7.94l0 -2.01 0.86 -0.77c0.25,-0.1 0.44,0.16 0.26,0.33l-0.23 0.24c0.3,0.11 0.32,0.5 0,0.6 0.26,0.03 0.34,0.41 0.1,0.51 0.19,0.16 0.16,0.31 0,0.45l-0.29 0c-0.14,-0.02 -0.15,0.11 -0.14,0.23 -0.26,-0.12 -0.44,0.02 -0.56,0.42z"/>
  <path class="fil1" d="M3.87 7.94l-0.46 0.42c-0.09,0.13 -0.11,0.2 0,0.31l0.6 0.6c0.22,0.06 0.43,-0.19 0.34,-0.34l-0.48 -0.49 0 -0.5z"/>
  <path class="fil1" d="M4.82 8.46l1.03 0.82c0.21,0.12 0.47,-0.2 0.21,-0.41 0.28,0.03 0.51,-0.26 0.21,-0.51 0.17,0.11 0.42,-0.17 0.23,-0.27l-0.63 -0.63c-0.18,0 -0.32,0.1 -0.41,0.26 -0.23,-0.05 -0.35,0.05 -0.32,0.33 -0.24,0.02 -0.37,0.14 -0.32,0.41z"/>
  <path class="fil1" d="M4.82 0c1.77,0.04 2,2.65 0.67,3.05l0 0.12 1.83 0c0.1,0 0.24,0.01 0.24,0.11l0 0.7 -2.08 0.56 0 0.48 -0.66 0.59 0 -3.55 0.3 0 0.11 0.11c0.54,-0.2 0.34,-1.26 -0.41,-1.23l0 -0.94z"/>
  <path class="fil1" d="M4.82 5.61l-0.51 0.57 -0.2 -0.15 0 -1.53 -2.01 -0.53 0 -0.62 0.18 -0.18 1.89 0 0 -0.12c-1.35,-0.63 -1.23,-3.01 0.65,-3.05l0 0.94c-0.8,0.03 -0.91,0.99 -0.4,1.23l0.11 -0.11 0.29 0 0 3.55z"/>
  <path class="fil1" d="M4.87 5.93l0.8 -0.71c0.35,-0.18 0.52,0.31 0.09,0.51 0.35,0.13 0.35,0.45 0,0.6 0.3,0.01 0.35,0.38 0.1,0.51 0.17,0.16 0.16,0.31 0,0.45 -0.25,-0.06 -0.38,0.03 -0.43,0.23 -0.32,-0.07 -0.51,0.07 -0.56,0.42l0 -2.01z"/>
 </g>
</svg>
